<svg xmlns="http://www.w3.org/2000/svg" version="1.1" xmlns:xlink="http://www.w3.org/1999/xlink" xmlns:svgjs="http://svgjs.dev/svgjs" width="1500" height="935" viewBox="0 0 1500 935"><g transform="matrix(1,0,0,1,-0.9090909090909918,0.3785425101214628)"><svg viewBox="0 0 396 247" data-background-color="#000000" preserveAspectRatio="xMidYMid meet" height="935" width="1500" xmlns="http://www.w3.org/2000/svg" xmlns:xlink="http://www.w3.org/1999/xlink"><g id="tight-bounds" transform="matrix(1,0,0,1,0.2400000000000091,-0.09999999999999432)"><svg viewBox="0 0 395.52 247.2" height="247.2" width="395.52"><rect width="395.52" height="247.2" fill="url(#82317646-d234-4b3f-b0f0-a68ac9e31053)" mask="url(#b88fa73e-e9aa-488e-a949-b7ee53d7d953)" data-fill-palette-color="tertiary"></rect><g><svg></svg></g><g><svg viewBox="0 0 395.52 247.2" height="247.2" width="395.52"><g transform="matrix(1,0,0,1,152.49060091883612,47.215199999999996)"><svg viewBox="0 0 90.53879816232772 152.7696" height="152.7696" width="90.53879816232772"><g><svg viewBox="0 0 90.53879816232772 152.7696" height="152.7696" width="90.53879816232772"><g><svg viewBox="0 0 90.53879816232772 152.7696" height="152.7696" width="90.53879816232772"><g><svg viewBox="0 0 90.53879816232772 152.7696" height="152.7696" width="90.53879816232772"><g id="textblocktransform"><svg viewBox="0 0 90.53879816232772 152.7696" height="152.7696" width="90.53879816232772" id="textblock"><g><svg viewBox="0 0 90.53879816232772 152.7696" height="152.7696" width="90.53879816232772"><g transform="matrix(1,0,0,1,0,0)"><svg width="90.53879816232772" viewBox="2.1 -32.3 19.349999999999998 32.65" height="152.7696" data-palette-color="url(#21d7f213-fe5a-4eed-b1cb-9a9094811e82)"></svg></g></svg></g></svg></g></svg></g></svg></g></svg></g></svg></g><path d="M60.728 41.215L60.728 0 307.928 0 307.928 247.2 60.728 247.2 60.728 205.985 74.505 205.985 74.505 233.423 294.151 233.423 294.151 13.777 74.505 13.777 74.505 41.215Z" fill="url(#82317646-d234-4b3f-b0f0-a68ac9e31053)" stroke="transparent" data-fill-palette-color="tertiary"></path></svg></g><defs></defs><mask id="408637ef-e201-4401-a7f1-a35a86b79949"><g id="SvgjsG3636"><svg viewBox="0 0 395.52 247.2" height="247.2" width="395.52"><g><svg></svg></g><g><svg viewBox="0 0 395.52 247.2" height="247.2" width="395.52"><g transform="matrix(1,0,0,1,152.49060091883612,47.215199999999996)"><svg viewBox="0 0 90.53879816232772 152.7696" height="152.7696" width="90.53879816232772"><g><svg viewBox="0 0 90.53879816232772 152.7696" height="152.7696" width="90.53879816232772"><g><svg viewBox="0 0 90.53879816232772 152.7696" height="152.7696" width="90.53879816232772"><g><svg viewBox="0 0 90.53879816232772 152.7696" height="152.7696" width="90.53879816232772"><g id="SvgjsG3635"><svg viewBox="0 0 90.53879816232772 152.7696" height="152.7696" width="90.53879816232772" id="SvgjsSvg3634"><g><svg viewBox="0 0 90.53879816232772 152.7696" height="152.7696" width="90.53879816232772"><g transform="matrix(1,0,0,1,0,0)"><svg width="90.53879816232772" viewBox="2.1 -32.3 19.349999999999998 32.65" height="152.7696" data-palette-color="url(#21d7f213-fe5a-4eed-b1cb-9a9094811e82)"><path d="M13.35-32.3Q16.8-32.3 20.5-30.8L20.5-30.8 19.85-26.95 19.15-26.75Q17.7-27.85 16.07-28.45 14.45-29.05 12.85-29.05L12.85-29.05Q11-29.05 9.63-28.3 8.25-27.55 7.53-26.35 6.8-25.15 6.8-23.85L6.8-23.85Q6.8-22.5 7.63-21.48 8.45-20.45 9.7-19.7 10.95-18.95 13.1-17.9L13.1-17.9Q15.8-16.65 17.45-15.58 19.1-14.5 20.28-12.85 21.45-11.2 21.45-8.85L21.45-8.85Q21.45-6.35 20.1-4.25 18.75-2.15 16.3-0.9 13.85 0.35 10.7 0.35L10.7 0.35Q8.6 0.35 6.33-0.23 4.05-0.8 2.1-1.9L2.1-1.9 2.6-6 3.15-6.25Q4.9-4.55 7.03-3.73 9.15-2.9 11.1-2.9L11.1-2.9Q13-2.9 14.48-3.65 15.95-4.4 16.73-5.65 17.5-6.9 17.5-8.3L17.5-8.3Q17.5-10.4 15.9-11.68 14.3-12.95 11.05-14.45L11.05-14.45Q8.4-15.75 6.8-16.78 5.2-17.8 4.05-19.43 2.9-21.05 2.9-23.4L2.9-23.4Q2.9-25.85 4.23-27.9 5.55-29.95 7.93-31.13 10.3-32.3 13.35-32.3L13.35-32.3Z" opacity="1" transform="matrix(1,0,0,1,0,0)" fill="white" class="wordmark-text-0" id="SvgjsPath3633"></path></svg></g></svg></g></svg></g></svg></g></svg></g></svg></g></svg></g><path d="M60.728 41.215L60.728 0 307.928 0 307.928 247.2 60.728 247.2 60.728 205.985 74.505 205.985 74.505 233.423 294.151 233.423 294.151 13.777 74.505 13.777 74.505 41.215Z" fill="black" stroke="transparent"></path></svg></g><defs><mask></mask></defs></svg><rect width="395.52" height="247.2" fill="black" stroke="none" visibility="hidden"></rect></g></mask><linearGradient x1="0" x2="1" y1="0.548" y2="0.55" id="21d7f213-fe5a-4eed-b1cb-9a9094811e82"><stop stop-color="#ff6cab" offset="0"></stop><stop stop-color="#7366ff" offset="1"></stop></linearGradient><rect width="395.52" height="247.2" fill="url(#21d7f213-fe5a-4eed-b1cb-9a9094811e82)" mask="url(#408637ef-e201-4401-a7f1-a35a86b79949)" data-fill-palette-color="primary"></rect><mask id="b88fa73e-e9aa-488e-a949-b7ee53d7d953"><g id="SvgjsG3659"><svg viewBox="0 0 395.52 247.2" height="247.2" width="395.52"><g><svg></svg></g><g><svg viewBox="0 0 395.52 247.2" height="247.2" width="395.52"><g transform="matrix(1,0,0,1,152.49060091883612,47.215199999999996)"><svg viewBox="0 0 90.53879816232772 152.7696" height="152.7696" width="90.53879816232772"><g><svg viewBox="0 0 90.53879816232772 152.7696" height="152.7696" width="90.53879816232772"><g><svg viewBox="0 0 90.53879816232772 152.7696" height="152.7696" width="90.53879816232772"><g><svg viewBox="0 0 90.53879816232772 152.7696" height="152.7696" width="90.53879816232772"><g id="SvgjsG3658"><svg viewBox="0 0 90.53879816232772 152.7696" height="152.7696" width="90.53879816232772" id="SvgjsSvg3657"><g><svg viewBox="0 0 90.53879816232772 152.7696" height="152.7696" width="90.53879816232772"><g transform="matrix(1,0,0,1,0,0)"><svg width="90.53879816232772" viewBox="2.1 -32.3 19.349999999999998 32.65" height="152.7696" data-palette-color="url(#21d7f213-fe5a-4eed-b1cb-9a9094811e82)"></svg></g></svg></g></svg></g></svg></g></svg></g></svg></g></svg></g><path d="M60.728 41.215L60.728 0 307.928 0 307.928 247.2 60.728 247.2 60.728 205.985 74.505 205.985 74.505 233.423 294.151 233.423 294.151 13.777 74.505 13.777 74.505 41.215Z" fill="white" stroke="transparent"></path></svg></g><defs><mask></mask></defs><mask><g id="SvgjsG3656"><svg viewBox="0 0 395.52 247.2" height="247.2" width="395.52"><g><svg></svg></g><g><svg viewBox="0 0 395.52 247.2" height="247.2" width="395.52"><g transform="matrix(1,0,0,1,152.49060091883612,47.215199999999996)"><svg viewBox="0 0 90.53879816232772 152.7696" height="152.7696" width="90.53879816232772"><g><svg viewBox="0 0 90.53879816232772 152.7696" height="152.7696" width="90.53879816232772"><g><svg viewBox="0 0 90.53879816232772 152.7696" height="152.7696" width="90.53879816232772"><g><svg viewBox="0 0 90.53879816232772 152.7696" height="152.7696" width="90.53879816232772"><g id="SvgjsG3655"><svg viewBox="0 0 90.53879816232772 152.7696" height="152.7696" width="90.53879816232772" id="SvgjsSvg3654"><g><svg viewBox="0 0 90.53879816232772 152.7696" height="152.7696" width="90.53879816232772"><g transform="matrix(1,0,0,1,0,0)"><svg width="90.53879816232772" viewBox="2.1 -32.3 19.349999999999998 32.65" height="152.7696" data-palette-color="url(#21d7f213-fe5a-4eed-b1cb-9a9094811e82)"><path d="M13.35-32.3Q16.8-32.3 20.5-30.8L20.5-30.8 19.85-26.95 19.15-26.75Q17.7-27.85 16.07-28.45 14.45-29.05 12.85-29.05L12.85-29.05Q11-29.05 9.63-28.3 8.25-27.55 7.53-26.35 6.8-25.15 6.8-23.85L6.8-23.85Q6.8-22.5 7.63-21.48 8.45-20.45 9.7-19.7 10.95-18.95 13.1-17.9L13.1-17.9Q15.8-16.65 17.45-15.58 19.1-14.5 20.28-12.85 21.45-11.2 21.45-8.85L21.45-8.85Q21.45-6.35 20.1-4.25 18.75-2.15 16.3-0.9 13.85 0.35 10.7 0.35L10.7 0.35Q8.6 0.35 6.33-0.23 4.05-0.8 2.1-1.9L2.1-1.9 2.6-6 3.15-6.25Q4.9-4.55 7.03-3.73 9.15-2.9 11.1-2.9L11.1-2.9Q13-2.9 14.48-3.65 15.95-4.4 16.73-5.65 17.5-6.9 17.5-8.3L17.5-8.3Q17.5-10.4 15.9-11.68 14.3-12.95 11.05-14.45L11.05-14.45Q8.4-15.75 6.8-16.78 5.2-17.8 4.05-19.43 2.9-21.05 2.9-23.4L2.9-23.4Q2.9-25.85 4.23-27.9 5.55-29.95 7.93-31.13 10.3-32.3 13.35-32.3L13.35-32.3Z" opacity="1" transform="matrix(1,0,0,1,0,0)" fill="black" class="wordmark-text-0" id="SvgjsPath3653"></path></svg></g></svg></g></svg></g></svg></g></svg></g></svg></g></svg></g><path d="M60.728 41.215L60.728 0 307.928 0 307.928 247.2 60.728 247.2 60.728 205.985 74.505 205.985 74.505 233.423 294.151 233.423 294.151 13.777 74.505 13.777 74.505 41.215Z" fill="black" stroke="transparent"></path></svg></g><defs><mask></mask></defs></svg><rect width="395.52" height="247.2" fill="black" stroke="none" visibility="hidden"></rect></g></mask></svg><rect width="395.52" height="247.2" fill="black" stroke="none" visibility="hidden"></rect></g></mask><linearGradient x1="0" x2="1" y1="0.548" y2="0.55" id="82317646-d234-4b3f-b0f0-a68ac9e31053"><stop stop-color="#ff6cab" offset="0"></stop><stop stop-color="#7366ff" offset="1"></stop></linearGradient></svg><rect width="395.52" height="247.2" fill="none" stroke="none" visibility="hidden"></rect></g></svg></g></svg>